<svg xmlns="http://www.w3.org/2000/svg" xmlns:xlink="http://www.w3.org/1999/xlink" width="111" zoomAndPan="magnify" viewBox="0 0 83.25 100.499998" height="134" preserveAspectRatio="xMidYMid meet" version="1.0"><defs><clipPath id="63d64acc13"><path d="M 1.179688 13.660156 L 81.453125 13.660156 L 81.453125 93.9375 L 1.179688 93.9375 Z M 1.179688 13.660156 " clip-rule="nonzero"/></clipPath><clipPath id="a7d26f40fe"><path d="M 8.25 8.453125 L 31 8.453125 L 31 31.492188 L 8.25 31.492188 Z M 8.25 8.453125 " clip-rule="nonzero"/></clipPath></defs><g clip-path="url(#63d64acc13)"><path fill="#ffde59" d="M 41.253906 13.660156 C 37.347656 46.664062 34.179688 49.828125 1.179688 53.734375 C 1.246094 53.742188 1.3125 53.75 1.382812 53.757812 C 34.191406 57.652344 37.355469 60.875 41.253906 93.808594 C 45.160156 60.804688 48.324219 57.640625 81.328125 53.734375 C 48.324219 49.828125 45.160156 46.664062 41.253906 13.660156 Z M 41.253906 13.660156 " fill-opacity="1" fill-rule="nonzero"/></g><g clip-path="url(#a7d26f40fe)"><path fill="#8c52ff" d="M 19.609375 8.453125 C 18.503906 17.804688 17.605469 18.703125 8.25 19.808594 C 8.269531 19.8125 8.289062 19.816406 8.308594 19.816406 C 17.609375 20.921875 18.503906 21.835938 19.609375 31.167969 C 20.714844 21.816406 21.613281 20.917969 30.96875 19.808594 C 21.613281 18.703125 20.714844 17.804688 19.609375 8.453125 Z M 19.609375 8.453125 " fill-opacity="1" fill-rule="nonzero"/></g></svg>