<svg xmlns="http://www.w3.org/2000/svg" xmlns:xlink="http://www.w3.org/1999/xlink" width="50" zoomAndPan="magnify" viewBox="0 0 37.5 37.499999" height="50" preserveAspectRatio="xMidYMid meet" version="1.0"><defs><clipPath id="634f8a8591"><path d="M 3.699219 5.101562 L 33.304688 5.101562 L 33.304688 31.902344 L 3.699219 31.902344 Z M 3.699219 5.101562 " clip-rule="nonzero"/></clipPath><clipPath id="7a98c37737"><path d="M 1.738281 1.738281 L 35.046875 1.738281 L 35.046875 35.046875 L 1.738281 35.046875 Z M 1.738281 1.738281 " clip-rule="nonzero"/></clipPath></defs><g clip-path="url(#634f8a8591)"><path fill="#ffffff" d="M 3.699219 5.101562 L 33.328125 5.101562 L 33.328125 31.902344 L 3.699219 31.902344 Z M 3.699219 5.101562 " fill-opacity="1" fill-rule="nonzero"/></g><g clip-path="url(#7a98c37737)"><path fill="#0277b5" d="M 32.261719 1.738281 L 4.539062 1.738281 C 3.003906 1.738281 1.773438 2.988281 1.773438 4.503906 L 1.773438 32.28125 C 1.773438 33.8125 3.023438 35.046875 4.539062 35.046875 L 32.246094 35.046875 C 33.777344 35.046875 35.011719 33.796875 35.011719 32.28125 L 35.011719 4.503906 C 35.027344 2.988281 33.796875 1.738281 32.261719 1.738281 Z M 11.621094 29.214844 L 6.703125 29.214844 L 6.703125 14.453125 L 11.621094 14.453125 Z M 9.152344 12.667969 C 7.605469 12.667969 6.355469 11.417969 6.355469 9.871094 C 6.355469 8.320312 7.605469 7.070312 9.152344 7.070312 C 10.703125 7.070312 11.953125 8.320312 11.953125 9.871094 C 11.953125 11.417969 10.703125 12.667969 9.152344 12.667969 Z M 30.113281 29.214844 L 25.183594 29.214844 L 25.066406 20.449219 C 25.066406 20.449219 25.183594 18.117188 22.632812 18.132812 C 20.082031 18.152344 19.734375 20.449219 19.734375 20.449219 L 19.734375 29.214844 L 14.769531 29.214844 L 14.769531 14.453125 L 19.535156 14.453125 L 19.535156 16.484375 C 19.535156 16.484375 19.734375 15.816406 20.832031 15.035156 C 21.933594 14.25 23.75 14.085938 24.53125 14.117188 C 25.316406 14.152344 26.382812 14.019531 28.164062 15.25 C 30.082031 16.566406 30.128906 20.015625 30.128906 20.015625 Z M 30.113281 29.214844 " fill-opacity="1" fill-rule="nonzero"/></g></svg>