<svg xmlns="http://www.w3.org/2000/svg" xmlns:xlink="http://www.w3.org/1999/xlink" width="40" zoomAndPan="magnify" viewBox="0 0 30 37.5" height="50" preserveAspectRatio="xMidYMid meet" version="1.0"><defs><g/><clipPath id="75d973943c"><path d="M 1.675781 5.03125 L 28.324219 5.03125 L 28.324219 31.972656 L 1.675781 31.972656 Z M 1.675781 5.03125 " clip-rule="nonzero"/></clipPath><clipPath id="b38ec1544d"><path d="M 16.5 13.511719 L 22.421875 13.511719 L 22.421875 14.992188 L 16.5 14.992188 Z M 16.5 13.511719 " clip-rule="nonzero"/></clipPath></defs><g clip-path="url(#75d973943c)"><path fill="#115efa" d="M 1.675781 5.03125 L 28.324219 5.03125 L 28.324219 31.972656 L 1.675781 31.972656 Z M 1.675781 5.03125 " fill-opacity="1" fill-rule="nonzero"/></g><g fill="#ffffff" fill-opacity="1"><g transform="translate(6.340002, 22.299454)"><g><path d="M 1.25 0 L 1.25 -9.625 L 5.359375 -9.625 C 5.953125 -9.625 6.453125 -9.53125 6.859375 -9.34375 C 7.273438 -9.15625 7.585938 -8.890625 7.796875 -8.546875 C 8.003906 -8.203125 8.109375 -7.796875 8.109375 -7.328125 C 8.109375 -6.898438 8.003906 -6.523438 7.796875 -6.203125 C 7.597656 -5.878906 7.300781 -5.617188 6.90625 -5.421875 L 6.90625 -5.28125 C 7.519531 -5.125 7.988281 -4.835938 8.3125 -4.421875 C 8.644531 -4.003906 8.8125 -3.492188 8.8125 -2.890625 C 8.8125 -1.960938 8.53125 -1.25 7.96875 -0.75 C 7.414062 -0.25 6.59375 0 5.5 0 Z M 4.96875 -5.78125 C 5.851562 -5.78125 6.296875 -6.179688 6.296875 -6.984375 C 6.296875 -7.390625 6.1875 -7.691406 5.96875 -7.890625 C 5.75 -8.097656 5.414062 -8.203125 4.96875 -8.203125 L 3.15625 -8.203125 L 3.15625 -5.78125 Z M 5.3125 -1.5 C 6.363281 -1.5 6.890625 -1.976562 6.890625 -2.9375 C 6.890625 -3.894531 6.363281 -4.375 5.3125 -4.375 L 3.15625 -4.375 L 3.15625 -1.5 Z M 5.3125 -1.5 "/></g></g></g><g fill="#ffffff" fill-opacity="1"><g transform="translate(15.755301, 22.299454)"><g><path d="M 7.171875 -3.21875 L 2.515625 -3.21875 C 2.566406 -2.582031 2.742188 -2.117188 3.046875 -1.828125 C 3.359375 -1.546875 3.78125 -1.40625 4.3125 -1.40625 C 4.726562 -1.40625 5.0625 -1.484375 5.3125 -1.640625 C 5.570312 -1.796875 5.785156 -2.03125 5.953125 -2.34375 L 6.078125 -2.34375 L 7.296875 -1.578125 C 7.054688 -1.066406 6.695312 -0.648438 6.21875 -0.328125 C 5.738281 -0.015625 5.101562 0.140625 4.3125 0.140625 C 3.5625 0.140625 2.910156 0 2.359375 -0.28125 C 1.816406 -0.570312 1.394531 -1 1.09375 -1.5625 C 0.800781 -2.125 0.65625 -2.8125 0.65625 -3.625 C 0.65625 -4.445312 0.8125 -5.140625 1.125 -5.703125 C 1.4375 -6.273438 1.859375 -6.703125 2.390625 -6.984375 C 2.921875 -7.265625 3.515625 -7.40625 4.171875 -7.40625 C 5.203125 -7.40625 5.988281 -7.128906 6.53125 -6.578125 C 7.082031 -6.035156 7.359375 -5.238281 7.359375 -4.1875 C 7.359375 -3.800781 7.34375 -3.503906 7.3125 -3.296875 Z M 5.609375 -4.390625 C 5.585938 -4.953125 5.457031 -5.359375 5.21875 -5.609375 C 4.976562 -5.859375 4.628906 -5.984375 4.171875 -5.984375 C 3.253906 -5.984375 2.710938 -5.453125 2.546875 -4.390625 Z M 5.609375 -4.390625 "/></g></g></g><g clip-path="url(#b38ec1544d)"><path fill="#ffffff" d="M 16.523438 13.507812 L 16.523438 14.804688 L 22.132812 14.804688 L 22.132812 13.507812 L 16.523438 13.507812 " fill-opacity="1" fill-rule="nonzero"/></g></svg>