<svg xmlns="http://www.w3.org/2000/svg" xmlns:xlink="http://www.w3.org/1999/xlink" width="40" zoomAndPan="magnify" viewBox="0 0 30 37.5" height="50" preserveAspectRatio="xMidYMid meet" version="1.0"><defs><clipPath id="6180a10044"><path d="M 2.234375 5.734375 L 28.136719 5.734375 L 28.136719 31.640625 L 2.234375 31.640625 Z M 2.234375 5.734375 " clip-rule="nonzero"/></clipPath></defs><g clip-path="url(#6180a10044)"><path fill="#0277b5" d="M 25.972656 5.734375 L 4.410156 5.734375 C 3.21875 5.734375 2.257812 6.707031 2.257812 7.886719 L 2.257812 29.488281 C 2.257812 30.683594 3.230469 31.640625 4.410156 31.640625 L 25.960938 31.640625 C 27.152344 31.640625 28.113281 30.667969 28.113281 29.488281 L 28.113281 7.886719 C 28.125 6.707031 27.164062 5.734375 25.972656 5.734375 Z M 9.917969 27.105469 L 6.09375 27.105469 L 6.09375 15.625 L 9.917969 15.625 Z M 8 14.238281 C 6.792969 14.238281 5.824219 13.265625 5.824219 12.058594 C 5.824219 10.855469 6.792969 9.882812 8 9.882812 C 9.203125 9.882812 10.175781 10.855469 10.175781 12.058594 C 10.175781 13.265625 9.203125 14.238281 8 14.238281 Z M 24.300781 27.105469 L 20.464844 27.105469 L 20.375 20.289062 C 20.375 20.289062 20.464844 18.472656 18.484375 18.488281 C 16.5 18.5 16.226562 20.289062 16.226562 20.289062 L 16.226562 27.105469 L 12.367188 27.105469 L 12.367188 15.625 L 16.074219 15.625 L 16.074219 17.203125 C 16.074219 17.203125 16.226562 16.6875 17.082031 16.078125 C 17.9375 15.46875 19.351562 15.339844 19.960938 15.363281 C 20.570312 15.390625 21.398438 15.285156 22.785156 16.246094 C 24.277344 17.269531 24.316406 19.953125 24.316406 19.953125 Z M 24.300781 27.105469 " fill-opacity="1" fill-rule="nonzero"/></g></svg>