<?xml version="1.0" standalone="no"?>
<!DOCTYPE svg PUBLIC "-//W3C//DTD SVG 20010904//EN"
 "http://www.w3.org/TR/2001/REC-SVG-20010904/DTD/svg10.dtd">
<svg version="1.0" xmlns="http://www.w3.org/2000/svg"
 width="15.000000pt" height="15.000000pt" viewBox="0 0 15.000000 15.000000"
 preserveAspectRatio="xMidYMid meet">

<g transform="translate(0.000000,15.000000) scale(0.100000,-0.100000)"
fill="#000000" stroke="none">
<path d="M10 75 l0 -65 65 0 65 0 0 65 0 65 -65 0 -65 0 0 -65z m58 32 c12
-15 19 -36 11 -33 -3 0 -14 -6 -25 -14 -18 -14 -18 -14 -1 6 20 24 22 35 6 32
-6 -2 -14 3 -16 10 -6 16 11 16 25 -1z"/>
</g>
</svg>
